<?xml version="1.0" encoding="utf-8"?>
<!-- Generator: Adobe Illustrator 19.2.1, SVG Export Plug-In . SVG Version: 6.00 Build 0)  -->
<!DOCTYPE svg PUBLIC "-//W3C//DTD SVG 1.1//EN" "http://www.w3.org/Graphics/SVG/1.1/DTD/svg11.dtd">
<svg version="1.1" id="Layer_1" xmlns="http://www.w3.org/2000/svg" xmlns:xlink="http://www.w3.org/1999/xlink" x="0px" y="0px"
	 viewBox="0 0 257.6 58.1" enable-background="new 0 0 257.6 58.1" xml:space="preserve">
<g>
	<g>
		<path fill="#4B4A4B" d="M77.3,38.7h-0.5c-0.1-1.7-0.7-2.3-2.1-2.3h-5.5v6.6c0,1.7,0.4,2.3,2.6,2.3v0.6h-7.3v-0.6
			c1.9-0.1,2.2-0.5,2.2-2.9V30.6c0-1.9-0.2-2.8-2.2-2.8v-0.6h13.4v3.5h-0.5c0-1.7-0.6-2.5-2.5-2.5h-5.7v7H75c1.1,0,1.6-0.6,1.7-1.9
			h0.5V38.7z"/>
		<path fill="#4B4A4B" d="M87.4,33.3c-2.2,0.1-2.2,0.4-2.2,2.6v7.3c0,1.7,0.4,1.9,2.3,2v0.5h-6.6v-0.5c1.5-0.1,1.6-0.1,1.8-0.5
			C83,44.3,83,42.6,83,42v-6.6c0-1.6-0.4-1.9-2.2-2v-0.5h6.6V33.3z"/>
		<path fill="#4B4A4B" d="M90.7,32.9c1.3-0.1,3-0.3,5.3-0.3c1.1,0,5.8,0,5.8,3.8c0,2.4-1.9,3.1-2.9,3.4c0.6,0.5,0.8,0.7,1.9,3
			c1,2.1,1.5,2.5,2.6,2.7V46c-1.8,0.1-3.4-0.6-4.6-2.5c-0.3-0.5-1.6-2.8-1.9-3.3h-1.9v3c0,1.7,0.2,2.1,1.5,2.1h0.9v0.5h-6.7v-0.5
			c1.9,0.1,2.2-0.5,2.2-1.7V35c0-1.4-0.3-1.4-2.2-1.5V32.9z M95.1,39.6h1.3c0.7,0,3.2,0,3.2-3.1c0-2.5-1.9-3.2-3.2-3.2
			c-0.5,0-1,0.1-1.3,0.1V39.6z"/>
		<path fill="#4B4A4B" d="M113.5,35.7h-0.6c-0.6-1.6-1.7-2.7-3.2-2.7c-1.2,0-2.1,0.9-2.1,1.9c0,1.2,0.7,1.7,3.8,3.7
			c0.8,0.5,2.6,1.7,2.6,3.9c0,2-1.6,3.7-4,3.7c-0.8,0-1-0.1-2.6-0.5c-0.1-0.1-0.3-0.1-0.4-0.1c-0.3,0-0.4,0.1-0.4,0.3h-0.5l-0.4-3.2
			h0.6c0.9,2.5,2.8,2.9,3.4,2.9c0.8,0,2.5-0.5,2.5-2.3c0-1.6-1.2-2.3-3.3-3.7c-2.7-1.6-3.1-2.8-3.1-4c0-1.9,1.7-3.3,3.5-3.3
			c0.7,0,1.3,0.1,1.9,0.3c0.1,0.1,0.8,0.3,0.9,0.3c0.1,0,0.2-0.1,0.4-0.3h0.5L113.5,35.7z"/>
		<path fill="#4B4A4B" d="M116.9,32.4h0.4c0.1,0.2,0.2,0.3,0.4,0.4c0.2,0.1,0.5,0.1,0.9,0.1h8.3c1,0,1.1-0.1,1.3-0.4h0.4l0.3,3.3
			h-0.5c-0.5-2.2-0.9-2.2-2.1-2.2h-2.5v9.9c0,1.8,0.3,1.8,2.5,1.9v0.5h-7.1v-0.5c2.2-0.1,2.5-0.1,2.5-1.8v-10h-2.2
			c-0.8,0-1.2,0.1-1.5,0.2c-0.4,0.3-0.4,0.6-0.9,2h-0.5L116.9,32.4z"/>
		<path fill="#4B4A4B" d="M166.1,38.8h3.2c1.1,0,1.4,0,1.6-1.6h0.6v4h-0.6c-0.1-1.6-0.3-1.7-1.8-1.7h-3v4.3c0,1.3,0.1,1.3,1.3,1.3
			h2.3c1.3,0,2-0.2,2.6-2.5h0.6l-0.3,3.2h-10.8v-0.5c1.9,0.1,2.1-0.5,2.1-1.7v-8.5c0-1.5-0.4-1.8-2.1-1.7v-0.5h10.2l0.1,2.8h-0.5
			c-0.4-2-0.8-2.2-2.3-2.2h-3.3V38.8z"/>
		<path fill="#4B4A4B" d="M183.4,45.8h-6.9v-0.5c1.9,0.1,2.2-0.5,2.2-1.7V35c0-0.7,0-1.5-1.3-1.5c-0.4,0-0.7,0-0.9,0.1V33
			c0.9-0.1,2.6-0.4,5.5-0.4c1.2,0,5.5,0,5.5,3.8c0,2.5-2.1,4-4.5,4c-0.9,0-1.5-0.1-2.1-0.3v3.5c0,1.5,0.2,1.6,2.5,1.7V45.8z
			 M180.8,39.6c0.5,0.1,0.9,0.2,1.6,0.2c2.7,0,2.8-2.9,2.8-3.3c0-1-0.4-3.3-3.1-3.3c-0.4,0-0.9,0-1.2,0.1V39.6z"/>
		<path fill="#4B4A4B" d="M196.3,32.7v0.5c-2,0.1-2.3,0.5-2.3,2v5.5c0,1.6,0,4.4,3.7,4.4c1.2,0,3.1-0.3,3.8-2.1
			c0.3-0.8,0.3-2.1,0.3-3v-4.4c0-2.1,0-2.3-2.3-2.4v-0.5h5.4v0.5c-2-0.1-2.2,0.5-2.2,1.7v5.4c0,2,0,5.8-5.4,5.8
			c-1.1,0-3.9-0.2-5.1-2.3c-0.4-0.8-0.4-2-0.4-2.8v-5.9c0-1.6,0-1.9-2.2-2v-0.5H196.3z"/>
		<path fill="#4B4A4B" d="M207.1,33c1.5-0.2,3.4-0.4,5.4-0.4c0.4,0,1.7,0,3,0.4c1.2,0.4,2.4,1.1,2.4,2.5c0,2-2.2,2.6-3,2.8v0.1
			c1.3,0.3,4,0.9,4,3.6c0,1.7-1.1,2.8-2.2,3.3c-1,0.5-2.2,0.5-3.3,0.5h-6.7v-0.5c2.2-0.3,2.5-0.5,2.5-2.6v-7.6c0-1.2-0.1-1.5-2-1.6
			V33z M211.2,38.2h1.1c1.3,0,3.3-0.2,3.3-2.6c0-1.3-0.7-1.9-1.6-2.2c-0.9-0.3-2-0.2-2.8-0.2V38.2z M211.2,43.4c0,1,0.1,1.8,1.8,1.8
			c0.3,0,1.2,0,1.9-0.4c0.8-0.4,1.5-1.1,1.5-2.7c0-1.8-0.8-2.6-1.9-3c-1-0.4-2.4-0.4-3.4-0.3V43.4z"/>
		<path fill="#4B4A4B" d="M228.9,32.8v0.5c-2.2,0-2.5,0.1-2.5,1.5V44c0,0.9,0,1.1,2.1,1.1c2.2,0,2.8-0.2,4-2.4h0.5l-1.3,3.1h-9.7
			v-0.5c1.9,0.1,2.2-0.5,2.2-1.7v-8c0-1.9-0.1-2.3-2.3-2.2v-0.5H228.9z"/>
		<path fill="#4B4A4B" d="M241.5,33.3c-2.2,0.1-2.2,0.4-2.2,2.6v7.3c0,1.7,0.4,1.9,2.3,2v0.5H235v-0.5c1.5-0.1,1.6-0.1,1.8-0.5
			c0.3-0.5,0.3-2.2,0.3-2.8v-6.6c0-1.6-0.4-1.9-2.2-2v-0.5h6.6V33.3z"/>
		<path fill="#4B4A4B" d="M257.2,36.2h-0.5c-0.3-0.6-0.7-1.4-1.5-2.1c-0.8-0.7-1.8-1.2-3.2-1.2c-3.1,0-5,3.1-5,6.6c0,4,2.5,6,4.7,6
			c2.9,0,4.7-2.2,5.4-3h0.5c-0.4,1.3-0.7,1.8-1.7,3.4c-0.7-0.1-1-0.1-1.7,0c-1.7,0.2-1.9,0.2-2.6,0.2c-5.3,0-6.9-4-6.9-6.7
			c0-3.9,3.2-7.1,7.2-7.1c1.2,0,1.9,0.2,3.6,1c0.2,0.1,0.3,0.1,0.5,0.1c0.3,0,0.5-0.1,0.6-0.3h0.5L257.2,36.2z"/>
		<path fill="#4B4A4B" d="M146.1,43c0,1.8,0.7,2.2,2.4,2.2h0.7v0.6h-8.5v-0.6h0.5c1.8,0,2.4-0.5,2.4-2.5V30.1c0-1.9-0.5-2.4-2.2-2.4
			h-0.7v-0.6c0.7,0,2.5-0.1,3.8-0.2c1.2-0.1,1.8-0.1,3.8-0.1c5.5,0,8,2.3,8,5.3c0,2.2-1.5,4.1-4,4.9c0,0,1.1,0.5,1.7,1.5
			c0.7,1.1,1.9,3.4,2.9,4.9c1.7,2.3,3.8,2,3.8,2V46c-1.7,0.1-4.8,0.4-6.5-2.3c-1.3-1.9-2.1-3.5-2.8-4.5c-0.8-1.2-1.8-1.3-1.8-1.3
			c-0.7,0-1.2,0.1-2,0.1c-0.7,0-1,0-1.5-0.1V43z M146.1,37.4c0.7,0.1,1.2,0.1,1.9,0.1c3.3,0,5.5-1.4,5.5-5c0-2.8-1.3-4.9-5.9-4.9
			c-0.6,0-1,0-1.5,0.1V37.4z"/>
	</g>
</g>
<g>
	<g>
		<path fill="#FFFFFF" d="M33,46.3c0.9-0.9,2.1-0.9,2.1-0.9s0.6-0.1,1.4,0.1c0.9,0.2,1.4,0.7,1.4,0.7s1.3,0,1.7-0.4
			c0.7-0.7,1.2-1.9,1.1-3.4c-0.1-1.1-1.3-2.4-1.3-2.4c-1.6-1.4-3.9-1.1-5.9-1.9c-1.2-0.5-2-1.1-2-1.1s-0.4-0.3-0.8-0.5
			c-0.4-0.2-0.7-0.2-0.7-0.2s-0.7-0.2-1.6,0c-0.5,0.2-1.1,0.6-1.1,0.6s0.8-0.2,1.4,0.4c0.4,0.5,0.5,0.9,0.8,1.5
			c0.3,0.5,0.7,0.6,0.7,0.6s-0.5,0.2-1.2,0.7c-0.8,0.6-1.2,1.3-1.2,1.3s0.9-0.5,1.8,0c0.7,0.4,1.2,0.4,1.2,0.4s-0.9,0.5-1.6,1.4
			c-0.6,0.7-0.3,1.3-0.3,1.3s0.1-0.3,0.6-0.5c0.4-0.2,0.9,0,0.9,0s-0.4,0.2-0.9,1.1c-0.4,0.6-1,0.8-1,0.8s0.2,0.3,1,0.3
			c0.7,0.1,1.2-0.3,1.5-0.6c0.4-0.3,0.8-0.4,0.8-0.4c-0.5,1.6,0.5,2.2,0.5,2.2S32.4,47,33,46.3"/>
	</g>
	<g>
		<g>
			<g>
				<g>
					<g>
						<path fill="#AB852E" d="M36.7,45.1c-0.5-0.5-0.3-1-0.5-1.6c-0.3-0.8-0.4-0.8-0.4-0.8s0.7,0.3,2,1.1c1.3,0.8,0.9,2.2,0.9,2.2
							s0.5-0.1,0.9-0.6c0.7-0.8,1.1-2.6,1.1-2.6c0.6,2.9-0.9,3.8-0.9,3.8s0.4,1.6-0.6,2.3c-0.8,0.5-2.1,0.4-2.1,0.4s1.1-0.3,1.2-1.5
							c0.1-0.8-0.5-1.5-0.5-1.5s0.2-0.1,0.2-0.3C38,45.4,37.3,45.7,36.7,45.1z"/>
					</g>
				</g>
			</g>
		</g>
	</g>
	<path fill="#AB852E" d="M33.4,38.1c2,0.8,4.4,0.5,5.9,1.9c0.1,0-0.1-0.3-0.1-0.9c-0.1-1.2,0.1-1.3,1.2-3.1
		c2.3-2.9,9.2-10.4,10.4-13c0.5-1.2,1.1-3.2,1.6-5.1c0.6-2.5,1.1-4.9,1.1-4.9c-0.6-0.4-1.3,1-1.8,2.7c-0.2,0.6-0.4,1.1-0.4,1.1
		s-0.1-0.5,0.4-2.6c0.4-1.8,0.7-2.3,0.7-2.3c-0.5-0.3-1.3,0.2-2,2.2c-0.4,1.1-0.6,2.1-0.6,2.1c0-0.1-0.1-0.1-0.1-1
		c0-0.9,0.2-1.5,0.2-1.5s-0.7,0-1.4,1.4c-0.3,0.7-0.5,2-0.5,2c-0.4-0.3-0.4-1.2-0.4-1.2c-0.3,0-0.8,0.6-1.1,1.5
		c-0.2,0.8-0.3,1.9-0.3,1.9c-0.3-0.2-0.3-0.8-0.3-0.8s-0.7,0.4-1,1.9c-0.2,0.9-0.2,1.4-0.2,1.4c-0.4-0.2-0.3-0.8-0.3-0.8
		c-0.6,0.2-1.2,1.2-1.4,2.7c0,0-0.5-0.2-0.9,0.4c-0.3,0.5-0.7,1.8-1.3,2.1c-0.5-0.1-0.7,0.3-0.9,0.4c-0.4,0.4-0.7,1.3-1.1,1.6
		c-0.2-0.1-0.6-0.1-0.8,0.1c-0.4,0.3-0.7,1.2-1.1,1.5c-0.2-0.1-0.6,0-0.8,0.2c-0.3,0.3-0.4,0.8-0.8,1.1c-0.2-0.1-0.4,0-0.7,0.3
		c-0.4,0.4-0.4,0.8-0.6,1c-0.4-0.1-0.6,0.2-0.8,0.4c-0.2,0.2-0.3,0.7-0.5,1c-0.9,0.2-1.2,3-1.2,3S32.3,37.7,33.4,38.1z"/>
	<path fill="#AB852E" d="M28.4,36.3c0.9-0.3,1.6,0,1.6,0s-3.2-3.6-4.5-8.4c-2.2-8-2.9-8.5-2.9-8.5c-0.4,0-0.5,0.7-0.5,0.7
		s-0.8-0.6-3-4.7c-1-1.8-1.8-4.8-1.9-4.7c-0.4,0.1-0.6,0.5-0.7,1.4c-0.1,0.5-0.1,1.3-0.1,1.3s-1.4-1.6-2.7-4.7
		c-0.8-2.1-1.5-5-1.8-4.9c-0.5,0.2-0.9,0.9-0.8,2c0.1,1.1,1.1,4.3,1.1,4.3l0,0c0,0-1.5-1.4-2.5-3.4c-1-2-2.1-4.9-2.2-4.9
		C6.8,2,6.3,3.5,7.7,6.9C8.5,8.7,9.2,10,9.2,10s-2-0.7-3.3-4.3C4.5,2.1,4.3,0,4.3,0S3.9-0.2,3.5,0.6C3.2,1.3,3.1,3.5,4.1,6.1
		C5,8.7,5.6,9.7,5.6,9.7S4.4,9.2,3.4,7.6C2.2,5.9,1.5,3.3,1.5,3.3S1.2,3.3,1,3.7c-0.2,0.4-0.6,1.8,0.3,4c0.5,1.3,1.5,2.9,1.5,2.9
		S2,10.2,1.5,9.6C0.9,9,0.3,8.3,0.3,8.3c-0.6,0.3-0.1,2.1,0.5,3.3c0.6,1.2,1.2,1.8,2.1,2.7c1,1,0.8,1.6,0.8,1.6
		c-0.3,0.5,1,1.9,1.6,2.3C6.1,18.7,6.5,19,6.5,19s-0.8,0.4,1,1.7c0.5,0.4,0.6,0.5,0.6,0.5S6.9,21.7,9.6,24c0.8,0.7,0.9,1,0.9,1
		c-0.4,0.4-0.2,0.8,0.2,1.5c0.2,0.4,0.4,0.9,0.4,0.9s-0.5,0.3,0,1.2c0.4,0.8,0.7,1.3,0.7,1.3c-0.4,0.4-0.4,1.1-0.1,1.6
		c0.4,0.6,0.6,1.2,0.6,1.2s-0.3,0.4-0.3,1c0.1,0.9,0.5,1.7,1.4,2.7c1.1,1.3,1.4,2,1.4,2s-0.4,0.6,0,1.2c0.5,0.9,2,1.5,2.5,2.1
		c0.1,0.9,1.5,0.9,1.5,1.5c0.1,0.6,0.8,1.1,1.3,1.3c0.2,0.1,0.6,0.3,0.6,0.6c0,0.6,1.6,0.9,2.3,1.4c0,0-3.5,1.2-6.3,2.5
		c-2.8,1.3-4.5-0.7-4.5-0.7s0.6,3.3,3.8,3.9c1.7,0.3,3.1,0,3.1,0s-0.8,0.9-2.1,1.6c-1.3,0.7-2.2,0.5-2.2,0.5s0.8,1.2,3.1,0.7
		C19.2,54.6,20,54,20,54s0,0.6-1,1.2c-1,0.7-1.4,0.7-1.4,0.7s0.6,0.2,1.5,0.7c0.7,0.4,1.6,0.7,2.8,0.6c0.9-0.1,2-0.9,2-0.9
		s-0.2,0.4-0.3,0.7c0,0.5,0.2,0.7,0.2,0.7s0.1-1.5,3.2-0.3c3.1,1.2,4.6,0.4,4.6,0.4s-0.6-0.3-0.8-0.7c-0.2-0.3-0.2-0.6-0.2-0.6
		s1,0.8,3.6,0.2c1.9-0.4,3.3-1.9,3.3-1.9s-2.3-0.4-3.8-4c-0.8-2.1-0.5-3.3,0-4.2c0.5-0.9,1.3-1.2,1.3-1.2s-1.2,0-2.1,0.9
		c-0.7,0.6-0.9,1.3-0.9,1.3s-1-0.5-0.5-2.2c0,0-0.4,0.1-0.8,0.4c-0.3,0.2-0.8,0.6-1.5,0.6c-0.7-0.1-1-0.3-1-0.3s0.7-0.2,1-0.8
		c0.5-0.9,0.9-1.1,0.9-1.1s-0.5-0.2-0.9,0c-0.4,0.2-0.6,0.5-0.6,0.5s-0.2-0.6,0.3-1.3c0.7-0.9,1.6-1.4,1.6-1.4s-0.6,0-1.2-0.4
		c-0.8-0.5-1.8,0-1.8,0s0.3-0.7,1.2-1.3c0.7-0.5,1.2-0.7,1.2-0.7s-0.4,0-0.7-0.6c-0.3-0.5-0.4-1-0.8-1.5c-0.5-0.6-1.4-0.4-1.4-0.4
		S27.9,36.5,28.4,36.3z"/>
</g>
</svg>
