<?xml version="1.0" encoding="utf-8"?>
<!-- Generator: Adobe Illustrator 16.0.0, SVG Export Plug-In . SVG Version: 6.00 Build 0)  -->
<!DOCTYPE svg PUBLIC "-//W3C//DTD SVG 1.1//EN" "http://www.w3.org/Graphics/SVG/1.1/DTD/svg11.dtd">
<svg version="1.1" id="Layer_1" xmlns="http://www.w3.org/2000/svg" xmlns:xlink="http://www.w3.org/1999/xlink" x="0px" y="0px"
	 width="24px" height="24px" viewBox="0 0 24 24" enable-background="new 0 0 24 24" xml:space="preserve">
<g id="Layer_2_1_">
	<path fill="#DAAC45" d="M20.082,6.001H3.917c-0.827,0-1.5,0.673-1.5,1.5v9.474c0,0.826,0.673,1.5,1.5,1.5h16.165
		c0.828,0,1.5-0.674,1.5-1.5V7.501C21.582,6.674,20.91,6.001,20.082,6.001z M20.082,7.001c0.074,0,0.143,0.018,0.205,0.047
		l-7.77,5.439c-0.271,0.189-0.766,0.189-1.037,0l-7.769-5.44c0.063-0.028,0.131-0.046,0.205-0.046H20.082z M20.082,17.475H3.917
		c-0.276,0-0.5-0.226-0.5-0.5V8.062l7.491,5.245c0.306,0.215,0.699,0.32,1.091,0.32c0.393,0,0.785-0.107,1.092-0.32l7.49-5.244
		v8.912C20.582,17.249,20.357,17.475,20.082,17.475z"/>
</g>
</svg>
