<?xml version="1.0" encoding="utf-8"?>
<!-- Generator: Adobe Illustrator 16.0.0, SVG Export Plug-In . SVG Version: 6.00 Build 0)  -->
<!DOCTYPE svg PUBLIC "-//W3C//DTD SVG 1.1//EN" "http://www.w3.org/Graphics/SVG/1.1/DTD/svg11.dtd">
<svg version="1.1" id="Layer_3" xmlns="http://www.w3.org/2000/svg" xmlns:xlink="http://www.w3.org/1999/xlink" x="0px" y="0px"
	 width="24px" height="24px" viewBox="0 0 24 24" enable-background="new 0 0 24 24" xml:space="preserve">
<path fill="#DAAC45" d="M20.809,6.61H18.2V3.9c0-0.292-0.238-0.53-0.53-0.53H6.33c-0.292,0-0.53,0.238-0.53,0.53v2.71H3.191
	c-0.795,0-1.441,0.646-1.441,1.441v7.087c0,0.795,0.646,1.441,1.441,1.441h2.608v3.52c0,0.293,0.238,0.531,0.53,0.531h11.34
	c0.292,0,0.53-0.238,0.53-0.531v-3.52h2.608c0.795,0,1.441-0.646,1.441-1.441V8.051C22.25,7.256,21.604,6.61,20.809,6.61z
	 M17.141,14.959v4.611H6.859v-4.611H17.141z M6.859,6.61V4.43h10.281v2.18H6.859z M17.67,13.9H6.33c-0.292,0-0.53,0.237-0.53,0.529
	v1.09H3.191c-0.21,0-0.381-0.171-0.381-0.381V8.051c0-0.21,0.171-0.382,0.381-0.382h17.618c0.211,0,0.382,0.171,0.382,0.382v7.087
	c0,0.21-0.171,0.381-0.382,0.381H18.2v-1.09C18.2,14.138,17.962,13.9,17.67,13.9z M17.67,10.91c-0.516,0-0.935-0.419-0.935-0.935
	c0-0.515,0.419-0.935,0.935-0.935s0.935,0.419,0.935,0.935C18.604,10.49,18.186,10.91,17.67,10.91z"/>
</svg>
