<?xml version="1.0" encoding="utf-8"?>
<!-- Generator: Adobe Illustrator 16.0.0, SVG Export Plug-In . SVG Version: 6.00 Build 0)  -->
<!DOCTYPE svg PUBLIC "-//W3C//DTD SVG 1.1//EN" "http://www.w3.org/Graphics/SVG/1.1/DTD/svg11.dtd">
<svg version="1.1" id="Layer_3" xmlns="http://www.w3.org/2000/svg" xmlns:xlink="http://www.w3.org/1999/xlink" x="0px" y="0px"
	 width="14px" height="14px" viewBox="0 0 24 24" enable-background="new 0 0 24 24" xml:space="preserve">
<path fill="#DAAC45" d="M4.79,15.211c-0.066,0.067-0.125,0.152-0.189,0.288l-1.842,4.628c-0.113,0.344-0.038,0.679,0.266,0.97
	c0.18,0.129,0.367,0.194,0.555,0.194c0.119,0,0.218-0.016,0.328-0.055l4.64-1.851c0.106-0.054,0.189-0.113,0.249-0.175l9.408-9.408
	l-4.003-4.004L4.79,15.211z M3.801,20.208l1.499-3.786l2.278,2.276L3.801,20.208z M8.451,18.159l-2.598-2.598l8.348-8.349
	l2.589,2.59L8.451,18.159z M20.819,4.91l-1.74-1.74c-0.654-0.615-1.638-0.613-2.263,0.011l-2.225,2.226l4.004,4.004l2.224-2.225
	c0.314-0.314,0.474-0.694,0.474-1.128C21.293,5.635,21.133,5.242,20.819,4.91z M20.112,6.479l-1.517,1.518l-2.59-2.59l1.517-1.518
	c0.253-0.251,0.611-0.235,0.86-0.001l1.719,1.719c0.131,0.138,0.191,0.281,0.191,0.45C20.293,6.224,20.237,6.354,20.112,6.479z"/>
</svg>
