<?xml version="1.0" encoding="utf-8"?>
<!-- Generator: Adobe Illustrator 19.1.0, SVG Export Plug-In . SVG Version: 6.00 Build 0)  -->
<svg version="1.1" id="Layer_1" xmlns="http://www.w3.org/2000/svg" xmlns:xlink="http://www.w3.org/1999/xlink" x="0px" y="0px" width="24px" height="24px"
	 viewBox="0 0 24 24" style="enable-background:new 0 0 24 24;" xml:space="preserve">
<path style="fill:#DAAC45;" d="M20.5,8.1c0.3,0,0.6-0.3,0.6-0.6V3.9h-3.6c-0.3,0-0.6,0.3-0.6,0.6s0.3,0.6,0.6,0.6H19l-6.2,6.2H3.4
	c-0.3,0-0.6,0.3-0.6,0.6c0,0,0,0,0,0c0,0,0,0,0,0c0,0.3,0.3,0.6,0.6,0.6h9.4l6.2,6.2h-1.5c-0.3,0-0.6,0.3-0.6,0.6s0.3,0.6,0.6,0.6
	h3.6v-3.6c0-0.3-0.3-0.6-0.6-0.6s-0.6,0.3-0.6,0.6v1.5l-6-6l6-6v1.5C19.9,7.8,20.1,8.1,20.5,8.1z"/>
</svg>
